<?xml version="1.0" standalone="no"?>
<!DOCTYPE svg PUBLIC "-//W3C//DTD SVG 20010904//EN"
 "http://www.w3.org/TR/2001/REC-SVG-20010904/DTD/svg10.dtd">
<svg version="1.0" xmlns="http://www.w3.org/2000/svg"
 width="260.000000pt" height="195.000000pt" viewBox="0 0 260.000000 195.000000"
 preserveAspectRatio="xMidYMid meet">

<g transform="translate(0.000000,195.000000) scale(0.100000,-0.100000)"
fill="#000000" stroke="none">
<path d="M0 1341 c1 -568 2 -610 18 -614 16 -4 16 -5 -1 -6 -15 -1 -17 -8 -13
-48 2 -27 5 -58 5 -70 1 -13 5 -23 10 -23 5 0 7 10 4 23 -3 12 -2 19 2 15 5
-4 14 -3 22 3 10 9 13 6 13 -14 0 -14 -5 -29 -10 -32 -15 -9 -12 -25 5 -25 8
0 17 11 21 25 3 14 10 22 15 19 11 -7 51 21 42 29 -3 4 1 7 10 7 9 0 17 5 17
11 0 6 -7 9 -15 6 -8 -4 -17 -2 -20 2 -2 5 4 11 15 14 23 6 43 -14 34 -37 -4
-11 -1 -16 10 -16 9 0 16 8 16 20 0 23 15 27 24 5 6 -17 46 -21 46 -5 0 6 -5
10 -11 10 -6 0 -17 7 -25 15 -13 13 -12 14 15 9 20 -4 31 -2 31 5 0 6 9 11 20
11 11 0 20 -4 20 -10 0 -5 -9 -10 -20 -10 -11 0 -20 -4 -20 -10 0 -5 9 -10 20
-10 11 0 20 -4 20 -10 0 -5 7 -10 15 -10 9 0 18 -7 21 -15 4 -9 19 -15 36 -15
19 0 27 -4 22 -11 -3 -6 0 -15 7 -20 11 -8 10 -11 -5 -21 -17 -10 -16 -12 19
-29 46 -23 42 -22 49 -4 4 10 -1 14 -17 12 -15 -1 -23 4 -25 18 -3 29 11 47
33 39 18 -7 18 -8 0 -14 -15 -5 -10 -10 24 -28 49 -26 52 -26 45 -7 -4 8 -13
15 -22 15 -12 0 -13 3 -5 11 8 8 17 6 31 -7 12 -10 19 -21 17 -25 -3 -4 6 -9
20 -11 14 -3 25 -1 25 3 0 5 -8 9 -17 9 -12 1 -7 6 12 15 l30 13 -33 1 c-18 1
-31 4 -29 9 4 6 34 7 81 3 5 -1 3 -8 -4 -16 -6 -8 -8 -20 -4 -26 4 -7 3 -9 -3
-6 -6 4 -13 -3 -16 -14 -4 -15 -11 -20 -21 -16 -10 4 -16 1 -16 -8 0 -8 9 -15
20 -15 11 0 20 6 20 14 0 8 5 18 11 22 9 5 10 -1 5 -20 -7 -30 13 -36 34 -11
10 12 10 19 2 27 -19 19 -14 25 17 26 21 0 28 -3 25 -13 -3 -7 1 -27 10 -43
16 -32 13 -42 -16 -42 -20 0 -25 -16 -7 -22 19 -6 0 -46 -24 -51 -18 -4 -17
-5 6 -6 15 0 27 -5 27 -10 0 -13 73 -10 82 3 5 7 8 7 8 -1 0 -7 6 -13 14 -13
8 0 18 -9 21 -21 l7 -20 18 20 c9 12 24 21 31 21 9 -1 8 -4 -4 -11 -17 -10
-18 -12 -1 -30 15 -17 15 -19 0 -25 -9 -3 -24 -3 -34 0 -9 3 -4 -5 12 -18 22
-18 26 -27 19 -41 -5 -9 -13 -16 -16 -16 -4 1 -8 1 -9 0 -20 -6 -55 -4 -60 5
-5 7 -8 6 -8 -4 0 -8 5 -22 10 -30 9 -13 11 -13 20 0 8 13 11 12 24 -5 9 -11
16 -23 16 -27 0 -5 5 -8 11 -8 8 0 8 4 -1 15 -10 12 -9 18 5 31 14 14 18 15
25 3 5 -7 12 -10 16 -6 4 3 2 12 -4 19 -7 10 -5 24 8 53 14 29 15 42 7 47 -8
5 -7 8 3 8 8 0 22 -5 30 -10 10 -6 11 -10 3 -10 -7 0 -13 -7 -13 -15 0 -8 -4
-15 -10 -15 -5 0 -10 -9 -10 -20 0 -11 5 -20 10 -20 15 0 12 -16 -6 -34 -9 -9
-12 -21 -7 -28 4 -7 6 -21 5 -31 -2 -10 7 -26 19 -36 l23 -18 -37 -14 c-20 -7
-37 -17 -37 -21 0 -13 20 -9 36 7 20 20 34 19 34 -2 0 -13 4 -11 20 7 14 16
17 27 10 34 -16 16 -12 26 10 26 18 0 25 10 21 32 0 4 6 5 15 1 12 -4 13 -8 3
-14 -7 -4 -12 -21 -12 -38 0 -17 -4 -31 -9 -31 -4 0 -8 -8 -7 -17 0 -11 3 -13
6 -5 6 14 33 16 33 2 0 -5 25 -10 55 -10 30 0 55 5 55 10 0 6 -8 10 -18 10
-10 0 -25 9 -35 20 -16 19 -16 20 3 20 12 0 23 -7 26 -15 4 -8 15 -15 25 -15
10 0 19 -7 19 -15 0 -8 5 -15 11 -15 6 0 9 9 6 20 -3 11 -1 20 4 20 5 0 9 -9
9 -20 0 -13 7 -20 20 -20 11 0 20 7 20 15 0 8 5 15 10 15 6 0 9 -6 8 -12 -4
-19 381 -25 393 -6 7 10 9 10 9 1 0 -19 476 -19 483 0 4 9 6 9 6 0 1 -10 38
-13 152 -13 133 0 153 2 165 17 13 17 13 17 14 1 0 -15 9 -18 45 -18 l45 0 0
975 0 975 -1300 0 -1300 0 0 -609z m445 -581 c3 -5 1 -10 -4 -10 -6 0 -11 5
-11 10 0 6 2 10 4 10 3 0 8 -4 11 -10z m-105 -31 c0 -11 10 -29 23 -40 l22
-18 -22 -1 c-13 0 -23 6 -23 13 0 7 -9 19 -19 26 -15 11 -16 17 -8 27 17 19
27 17 27 -7z m160 17 c0 -1 -5 -18 -12 -37 -13 -38 -35 -65 -46 -55 -3 4 0 11
8 17 13 8 13 10 1 18 -11 7 -10 12 8 22 11 8 21 19 21 26 0 7 5 13 10 13 6 0
10 -2 10 -4z m-423 -12 c-3 -3 -12 -4 -19 -1 -8 3 -5 6 6 6 11 1 17 -2 13 -5z
m13 -24 c-8 -5 -19 -10 -25 -10 -5 0 -3 5 5 10 8 5 20 10 25 10 6 0 3 -5 -5
-10z m100 0 c0 -5 -7 -10 -15 -10 -8 0 -15 5 -15 10 0 6 7 10 15 10 8 0 15 -4
15 -10z m407 -6 c-3 -3 -12 -4 -19 -1 -8 3 -5 6 6 6 11 1 17 -2 13 -5z m-470
-20 c-3 -3 -12 -4 -19 -1 -8 3 -5 6 6 6 11 1 17 -2 13 -5z m-93 -29 c-4 -8 -8
-15 -10 -15 -2 0 -4 7 -4 15 0 8 4 15 10 15 5 0 7 -7 4 -15z m62 -11 c-3 -8 1
-14 9 -14 8 0 15 -4 15 -10 0 -5 -11 -10 -25 -10 -21 0 -25 5 -25 30 0 22 4
28 16 23 8 -3 13 -12 10 -19z m304 -9 c0 -8 -7 -15 -16 -15 -14 0 -14 3 -4 15
7 8 14 15 16 15 2 0 4 -7 4 -15z m120 -15 c0 -17 -15 -11 -28 11 -12 19 -11
19 8 9 11 -6 20 -15 20 -20z m-76 -30 c-6 -5 -24 21 -24 34 0 6 6 1 14 -10 8
-10 12 -21 10 -24z m239 23 c10 -9 -13 -33 -32 -33 -14 0 -14 2 -1 10 10 6 11
10 3 10 -7 0 -13 5 -13 10 0 11 33 14 43 3z m-133 -17 c0 -2 -7 -7 -16 -10 -8
-3 -12 -2 -9 4 6 10 25 14 25 6z m169 -35 c9 -16 8 -18 -8 -14 -12 3 -17 11
-14 19 7 18 10 18 22 -5z m98 -113 c-2 -13 -4 -3 -4 22 0 25 2 35 4 23 2 -13
2 -33 0 -45z m23 0 c-7 -19 -9 -15 -9 22 0 37 2 41 9 23 6 -14 6 -32 0 -45z
m-74 25 c-10 -10 -19 5 -10 18 6 11 8 11 12 0 2 -7 1 -15 -2 -18z m221 5 c-3
-8 -6 -5 -6 6 -1 11 2 17 5 13 3 -3 4 -12 1 -19z m-197 -38 c0 -5 -4 -10 -10
-10 -5 0 -10 5 -10 10 0 6 5 10 10 10 6 0 10 -4 10 -10z m-24 -64 c3 -9 12
-12 21 -9 10 4 14 2 11 -7 -2 -7 -18 -14 -35 -14 -24 -1 -30 3 -28 19 3 25 3
25 15 25 6 0 13 -6 16 -14z m199 4 c-3 -6 -19 -17 -35 -25 -23 -12 -28 -12
-24 -2 4 11 26 23 62 36 2 1 0 -4 -3 -9z m-97 -42 c-6 -18 -28 -21 -28 -4 0 9
7 16 16 16 9 0 14 -5 12 -12z m217 -138 c3 -5 -1 -10 -10 -10 -9 0 -13 5 -10
10 3 6 8 10 10 10 2 0 7 -4 10 -10z m-35 -10 c0 -5 -5 -10 -11 -10 -5 0 -7 5
-4 10 3 6 8 10 11 10 2 0 4 -4 4 -10z m-43 -6 c-3 -3 -12 -4 -19 -1 -8 3 -5 6
6 6 11 1 17 -2 13 -5z m83 -18 c0 -21 -21 -31 -31 -15 -5 8 -3 17 4 21 18 12
27 10 27 -6z m-100 -8 c-24 -11 -24 -12 15 -18 l40 -7 -47 -2 c-42 -1 -46 1
-41 19 4 14 13 20 32 19 l26 0 -25 -11z m195 -8 c3 -5 1 -10 -4 -10 -6 0 -11
5 -11 10 0 6 2 10 4 10 3 0 8 -4 11 -10z m1405 -10 c0 -5 -4 -10 -10 -10 -5 0
-10 5 -10 10 0 6 5 10 10 10 6 0 10 -4 10 -10z m-1456 -30 c-10 -4 -25 -5 -33
-2 -11 4 -10 7 5 12 10 4 25 5 33 2 11 -4 10 -7 -5 -12z m-107 4 c-3 -3 -12
-4 -19 -1 -8 3 -5 6 6 6 11 1 17 -2 13 -5z m-47 -24 c0 -5 -4 -10 -10 -10 -5
0 -10 5 -10 10 0 6 5 10 10 10 6 0 10 -4 10 -10z m106 -28 c-23 -23 -31 -8 -9
17 10 13 19 17 22 10 2 -6 -4 -18 -13 -27z m129 29 c3 -5 1 -12 -5 -16 -5 -3
-10 1 -10 9 0 18 6 21 15 7z m-108 -57 c-3 -3 -12 -4 -19 -1 -8 3 -5 6 6 6 11
1 17 -2 13 -5z m296 -11 c-7 -2 -21 -2 -30 0 -10 3 -4 5 12 5 17 0 24 -2 18
-5z"/>
<path d="M280 610 c0 -5 -15 -10 -34 -10 -19 0 -37 -4 -40 -8 -6 -9 25 -9 77
2 39 9 51 26 17 26 -11 0 -20 -4 -20 -10z"/>
<path d="M146 579 c3 -5 14 -9 25 -9 10 0 19 4 19 9 0 5 -11 9 -25 9 -13 0
-22 -4 -19 -9z"/>
<path d="M350 570 c0 -5 7 -10 15 -10 8 0 15 5 15 10 0 6 -7 10 -15 10 -8 0
-15 -4 -15 -10z"/>
<path d="M0 560 c0 -5 5 -10 11 -10 5 0 7 5 4 10 -3 6 -8 10 -11 10 -2 0 -4
-4 -4 -10z"/>
<path d="M86 563 c-3 -3 -6 -15 -6 -25 0 -16 -6 -18 -42 -13 -39 4 -40 4 -13
-5 17 -5 37 -11 45 -12 8 -2 19 -7 23 -13 5 -6 7 -4 4 5 -2 8 0 25 4 37 8 22
-2 39 -15 26z"/>
<path d="M320 545 c0 -8 7 -15 16 -15 9 0 18 -9 21 -20 3 -11 10 -20 15 -20 6
0 8 7 4 15 -3 8 2 22 11 31 16 15 15 16 -15 9 -21 -4 -32 -3 -32 4 0 6 -4 11
-10 11 -5 0 -10 -7 -10 -15z"/>
<path d="M200 534 c0 -24 36 -50 43 -31 4 7 6 6 6 -3 1 -9 -4 -21 -11 -28 -6
-6 -9 -14 -6 -17 7 -7 48 34 48 47 0 7 -8 9 -50 12 -8 1 -15 6 -15 13 0 6 -3
15 -7 19 -5 4 -8 -1 -8 -12z"/>
<path d="M163 510 c-1 -11 4 -20 13 -20 16 0 16 2 8 24 -8 22 -19 20 -21 -4z"/>
<path d="M122 490 c0 -14 2 -19 5 -12 2 6 2 18 0 25 -3 6 -5 1 -5 -13z"/>
<path d="M400 499 c0 -5 5 -7 10 -4 6 3 10 8 10 11 0 2 -4 4 -10 4 -5 0 -10
-5 -10 -11z"/>
<path d="M0 492 c0 -15 42 -34 53 -23 7 7 5 12 -6 16 -9 3 -24 7 -32 10 -8 2
-15 1 -15 -3z"/>
<path d="M553 493 c-35 -14 2 -62 47 -62 23 0 23 1 -7 14 -35 15 -40 24 -21
43 12 12 3 15 -19 5z"/>
<path d="M705 466 c-5 -11 -3 -21 6 -26 19 -12 21 -7 10 21 -8 22 -10 22 -16
5z"/>
<path d="M661 431 c-8 -6 -9 -11 -3 -15 6 -3 14 -1 17 5 9 14 2 20 -14 10z"/>
<path d="M105 420 c-3 -5 -1 -10 4 -10 6 0 11 5 11 10 0 6 -2 10 -4 10 -3 0
-8 -4 -11 -10z"/>
<path d="M445 420 c3 -5 8 -10 11 -10 2 0 4 5 4 10 0 6 -5 10 -11 10 -5 0 -7
-4 -4 -10z"/>
<path d="M541 414 c0 -11 3 -14 6 -6 3 7 2 16 -1 19 -3 4 -6 -2 -5 -13z"/>
<path d="M481 393 c-1 -26 -4 -30 -21 -26 -11 3 -20 0 -20 -6 0 -16 40 -13 46
3 3 8 4 25 1 38 -3 18 -5 16 -6 -9z"/>
<path d="M620 410 c0 -5 5 -10 10 -10 6 0 10 5 10 10 0 6 -4 10 -10 10 -5 0
-10 -4 -10 -10z"/>
<path d="M636 391 c-3 -5 7 -11 22 -14 32 -6 42 0 22 13 -19 12 -37 13 -44 1z"/>
<path d="M500 365 c0 -8 2 -15 4 -15 2 0 6 7 10 15 3 8 1 15 -4 15 -6 0 -10
-7 -10 -15z"/>
<path d="M365 360 c-3 -5 -1 -10 4 -10 6 0 11 5 11 10 0 6 -2 10 -4 10 -3 0
-8 -4 -11 -10z"/>
<path d="M290 349 c0 -5 5 -7 10 -4 6 3 10 8 10 11 0 2 -4 4 -10 4 -5 0 -10
-5 -10 -11z"/>
<path d="M608 353 c6 -2 18 -2 25 0 6 3 1 5 -13 5 -14 0 -19 -2 -12 -5z"/>
<path d="M245 340 c3 -5 8 -10 11 -10 2 0 4 5 4 10 0 6 -5 10 -11 10 -5 0 -7
-4 -4 -10z"/>
<path d="M528 343 c6 -2 18 -2 25 0 6 3 1 5 -13 5 -14 0 -19 -2 -12 -5z"/>
<path d="M650 310 c-13 -9 -13 -10 0 -10 8 0 22 5 30 10 13 9 13 10 0 10 -8 0
-22 -5 -30 -10z"/>
<path d="M480 300 c0 -5 5 -10 10 -10 6 0 10 5 10 10 0 6 -4 10 -10 10 -5 0
-10 -4 -10 -10z"/>
<path d="M73 283 c0 -11 7 -20 14 -20 10 0 10 4 1 16 -7 9 -13 18 -15 20 -1 2
-1 -5 0 -16z"/>
<path d="M575 290 c-7 -12 2 -12 30 0 19 8 19 9 -2 9 -12 1 -25 -3 -28 -9z"/>
<path d="M731 284 c0 -11 3 -14 6 -6 3 7 2 16 -1 19 -3 4 -6 -2 -5 -13z"/>
<path d="M750 290 c0 -5 5 -10 10 -10 6 0 10 5 10 10 0 6 -4 10 -10 10 -5 0
-10 -4 -10 -10z"/>
<path d="M781 284 c0 -11 3 -14 6 -6 3 7 2 16 -1 19 -3 4 -6 -2 -5 -13z"/>
<path d="M800 275 c0 -8 4 -15 10 -15 5 0 7 7 4 15 -4 8 -8 15 -10 15 -2 0 -4
-7 -4 -15z"/>
<path d="M663 273 c9 -2 25 -2 35 0 9 3 1 5 -18 5 -19 0 -27 -2 -17 -5z"/>
<path d="M595 250 c10 -11 20 -18 23 -16 5 6 -23 36 -34 36 -4 0 1 -9 11 -20z"/>
<path d="M85 240 c-3 -5 1 -10 10 -10 9 0 13 5 10 10 -3 6 -8 10 -10 10 -2 0
-7 -4 -10 -10z"/>
<path d="M135 220 c4 -6 11 -8 16 -5 14 9 11 15 -7 15 -8 0 -12 -5 -9 -10z"/>
<path d="M730 209 c0 -5 5 -7 10 -4 6 3 10 8 10 11 0 2 -4 4 -10 4 -5 0 -10
-5 -10 -11z"/>
<path d="M838 203 c7 -3 16 -2 19 1 4 3 -2 6 -13 5 -11 0 -14 -3 -6 -6z"/>
<path d="M465 190 c-3 -5 -1 -10 4 -10 6 0 11 5 11 10 0 6 -2 10 -4 10 -3 0
-8 -4 -11 -10z"/>
<path d="M617 189 c7 -7 15 -10 18 -7 3 3 -2 9 -12 12 -14 6 -15 5 -6 -5z"/>
<path d="M782 153 c-2 -47 -22 -60 -23 -15 0 27 0 27 -10 3 -6 -16 -6 -28 2
-37 15 -18 21 -18 45 2 10 8 14 13 7 10 -8 -5 -13 7 -16 36 l-4 43 -1 -42z"/>
<path d="M510 169 c0 -5 5 -7 10 -4 6 3 10 8 10 11 0 2 -4 4 -10 4 -5 0 -10
-5 -10 -11z"/>
<path d="M892 120 c1 -32 9 -38 26 -17 7 8 7 17 -2 30 -19 25 -25 21 -24 -13z"/>
<path d="M231 124 c0 -11 3 -14 6 -6 3 7 2 16 -1 19 -3 4 -6 -2 -5 -13z"/>
<path d="M711 114 c0 -11 3 -14 6 -6 3 7 2 16 -1 19 -3 4 -6 -2 -5 -13z"/>
<path d="M440 91 c0 -5 5 -13 10 -16 6 -3 10 -2 10 4 0 5 -4 13 -10 16 -5 3
-10 2 -10 -4z"/>
<path d="M430 40 c0 -5 5 -10 11 -10 5 0 7 5 4 10 -3 6 -8 10 -11 10 -2 0 -4
-4 -4 -10z"/>
<path d="M872 38 c5 -15 28 -23 28 -10 0 5 -7 13 -16 16 -10 4 -14 1 -12 -6z"/>
<path d="M660 10 c0 -5 5 -10 10 -10 6 0 10 5 10 10 0 6 -4 10 -10 10 -5 0
-10 -4 -10 -10z"/>
<path d="M860 10 c0 -5 5 -10 10 -10 6 0 10 5 10 10 0 6 -4 10 -10 10 -5 0
-10 -4 -10 -10z"/>
<path d="M728 3 c7 -3 16 -2 19 1 4 3 -2 6 -13 5 -11 0 -14 -3 -6 -6z"/>
<path d="M778 3 c7 -3 16 -2 19 1 4 3 -2 6 -13 5 -11 0 -14 -3 -6 -6z"/>
</g>
</svg>
