<?xml version="1.0" standalone="no"?>
<!DOCTYPE svg PUBLIC "-//W3C//DTD SVG 20010904//EN"
 "http://www.w3.org/TR/2001/REC-SVG-20010904/DTD/svg10.dtd">
<svg version="1.0" xmlns="http://www.w3.org/2000/svg"
 width="260.000000pt" height="195.000000pt" viewBox="0 0 260.000000 195.000000"
 preserveAspectRatio="xMidYMid meet">

<g transform="translate(0.000000,195.000000) scale(0.100000,-0.100000)"
fill="#000000" stroke="none">
<path d="M2585 1008 c-11 -24 -45 -34 -45 -13 0 24 -19 27 -45 7 -13 -11 -22
-21 -20 -24 3 -2 -10 -4 -28 -4 -17 0 -41 -4 -51 -9 -16 -7 -18 -5 -13 8 10
26 -7 20 -18 -5 -8 -19 -18 -23 -55 -23 -25 1 -48 -4 -52 -10 -6 -7 -11 -5
-17 4 -7 11 -9 11 -14 0 -5 -12 -7 -11 -16 1 -5 8 -13 11 -17 7 -4 -3 -1 -14
7 -24 12 -15 12 -16 -2 -11 -9 3 -22 2 -30 -3 -10 -6 -8 -9 11 -10 l25 -1 -25
-7 c-14 -4 -29 -4 -35 0 -17 12 -65 -2 -65 -19 0 -13 -3 -12 -14 3 -13 18 -15
18 -40 2 -14 -10 -26 -25 -27 -35 0 -13 -3 -11 -9 6 -5 12 -11 22 -14 22 -2 0
-2 -10 1 -22 4 -16 2 -20 -5 -13 -6 6 -12 21 -15 35 -4 24 -4 23 -12 -7 -8
-34 -25 -45 -25 -17 0 8 -5 12 -11 9 -6 -4 -8 -9 -5 -12 5 -6 -47 -53 -59 -53
-4 0 -5 9 -2 20 3 12 1 18 -5 14 -6 -4 -14 -1 -18 6 -7 11 -12 10 -25 -3 -9
-10 -21 -15 -26 -12 -5 4 -6 -2 -2 -11 4 -11 3 -15 -5 -10 -6 3 -15 -1 -20
-10 -6 -11 -11 -13 -16 -5 -11 18 -26 13 -36 -11 -7 -20 -9 -20 -9 -4 -1 16
-7 18 -36 13 -20 -3 -33 -2 -30 3 3 5 1 11 -4 14 -5 3 -12 -6 -15 -20 -6 -21
-9 -24 -21 -14 -12 10 -15 9 -15 -3 0 -9 -9 -21 -20 -27 -16 -9 -20 -8 -20 5
0 15 -31 21 -44 8 -12 -12 -36 -12 -36 0 -1 7 -5 6 -13 -3 -13 -15 -52 -40
-63 -40 -3 0 -4 12 0 28 3 15 3 21 0 15 -3 -7 -15 -13 -25 -13 -11 0 -17 -4
-14 -10 8 -13 -21 -13 -47 1 -15 8 -27 8 -46 -2 -20 -11 -26 -11 -29 -1 -7 17
-40 15 -47 -4 -5 -13 -9 -14 -21 -4 -10 9 -15 9 -15 1 0 -6 -4 -11 -10 -11 -5
0 -6 8 -3 17 5 13 2 15 -12 10 -9 -4 -24 -2 -33 5 -13 11 -14 9 -8 -15 5 -20
3 -27 -8 -27 -9 0 -13 6 -10 14 4 10 0 13 -13 10 -10 -3 -29 -1 -43 4 -18 7
-33 5 -53 -4 -24 -13 -27 -13 -27 1 0 8 5 15 10 15 6 0 10 5 10 10 0 6 -7 10
-15 10 -8 0 -15 -6 -15 -12 0 -9 -2 -10 -8 -2 -8 13 -83 24 -76 12 3 -4 1 -8
-5 -8 -5 0 -14 12 -19 28 -9 25 -10 25 -18 8 -5 -13 -3 -21 4 -24 7 -2 12 -11
12 -20 -1 -16 -2 -16 -14 0 -9 12 -16 14 -23 7 -7 -7 -17 -2 -31 16 -16 19
-27 25 -42 20 -11 -3 -20 -11 -20 -16 0 -5 -10 0 -22 11 -12 11 -28 18 -35 16
-7 -3 -19 2 -28 10 -13 13 -18 14 -31 3 -14 -12 -20 -9 -40 16 -23 29 -23 29
-18 5 5 -25 5 -25 -7 -2 -7 12 -21 22 -33 22 -17 0 -18 -2 -6 -10 10 -6 11
-10 3 -10 -7 0 -18 9 -25 20 -16 25 -48 26 -49 3 0 -11 -3 -13 -6 -5 -2 6 -11
12 -19 12 -8 0 -14 4 -14 8 0 5 -14 7 -30 4 -34 -5 -41 13 -12 34 16 12 16 13
0 14 -9 0 -20 -5 -23 -10 -3 -6 -13 -10 -21 -10 -8 0 -13 4 -10 9 3 5 -1 12
-10 15 -24 9 -31 7 -14 -4 23 -15 -11 -13 -57 4 -83 29 -111 36 -126 30 -15
-5 -16 -55 -17 -475 l0 -469 1300 0 1300 0 0 515 c0 283 -1 515 -3 515 -1 0
-7 -10 -12 -22z m-55 -8 c0 -5 -2 -10 -4 -10 -3 0 -8 5 -11 10 -3 6 -1 10 4
10 6 0 11 -4 11 -10z m-2473 -86 c-3 -3 -12 -4 -19 -1 -8 3 -5 6 6 6 11 1 17
-2 13 -5z m333 -74 c0 -5 -4 -10 -10 -10 -5 0 -10 5 -10 10 0 6 5 10 10 10 6
0 10 -4 10 -10z m1430 -50 c0 -5 -2 -10 -4 -10 -3 0 -8 5 -11 10 -3 6 -1 10 4
10 6 0 11 -4 11 -10z m-1110 -50 c0 -5 -4 -10 -10 -10 -5 0 -10 5 -10 10 0 6
5 10 10 10 6 0 10 -4 10 -10z"/>
<path d="M2556 1005 c4 -8 8 -15 10 -15 2 0 4 7 4 15 0 8 -4 15 -10 15 -5 0
-7 -7 -4 -15z"/>
<path d="M631 804 c0 -11 3 -14 6 -6 3 7 2 16 -1 19 -3 4 -6 -2 -5 -13z"/>
<path d="M1581 784 c0 -11 3 -14 6 -6 3 7 2 16 -1 19 -3 4 -6 -2 -5 -13z"/>
<path d="M726 772 c-3 -6 -1 -14 5 -17 15 -10 25 3 12 16 -7 7 -13 7 -17 1z"/>
<path d="M1510 765 c7 -8 20 -15 29 -15 13 1 13 3 -3 15 -26 19 -42 19 -26 0z"/>
<path d="M1318 753 c7 -3 16 -2 19 1 4 3 -2 6 -13 5 -11 0 -14 -3 -6 -6z"/>
<path d="M978 733 c6 -2 18 -2 25 0 6 3 1 5 -13 5 -14 0 -19 -2 -12 -5z"/>
</g>
</svg>
