<?xml version="1.0" standalone="no"?>
<!DOCTYPE svg PUBLIC "-//W3C//DTD SVG 20010904//EN"
 "http://www.w3.org/TR/2001/REC-SVG-20010904/DTD/svg10.dtd">
<svg version="1.0" xmlns="http://www.w3.org/2000/svg"
 width="260.000000pt" height="195.000000pt" viewBox="0 0 260.000000 195.000000"
 preserveAspectRatio="xMidYMid meet">
<metadata>
Created by potrace 1.16, written by Peter Selinger 2001-2019
</metadata>
<g transform="translate(0.000000,195.000000) scale(0.100000,-0.100000)"
fill="#000000" stroke="none">
<path d="M1354 1935 c13 -10 17 -21 12 -39 -5 -19 -2 -26 9 -26 8 0 15 -4 15
-9 0 -5 8 -8 18 -7 11 1 16 -5 14 -17 -2 -12 4 -20 16 -24 22 -5 23 -23 4 -45
-10 -12 -7 -14 18 -10 25 3 30 0 36 -22 3 -14 13 -26 21 -26 9 0 13 -6 9 -15
-4 -11 2 -15 21 -15 25 0 26 -1 8 -14 -18 -13 -18 -14 3 -20 13 -4 19 -12 16
-18 -5 -7 -1 -9 9 -5 10 3 17 2 17 -3 0 -6 7 -10 15 -10 8 0 15 -4 15 -10 0
-5 -4 -10 -10 -10 -5 0 -10 -5 -10 -11 0 -6 10 -10 23 -9 35 3 44 -1 22 -10
-16 -7 -17 -9 -3 -9 11 -1 18 -11 20 -28 2 -22 13 -33 46 -48 25 -13 39 -25
34 -30 -5 -6 -3 -21 4 -35 12 -21 14 -22 14 -6 0 16 7 12 35 -20 19 -21 35
-42 35 -46 0 -5 7 -8 15 -8 8 0 15 -9 15 -20 0 -13 7 -20 20 -20 13 0 18 -5
14 -15 -4 -9 0 -15 7 -15 11 0 11 -3 -1 -10 -12 -8 -9 -10 13 -10 28 0 37 -14
15 -23 -7 -3 -2 -6 12 -7 14 -1 19 -4 12 -7 -21 -8 -3 -23 29 -23 19 0 29 -5
29 -15 0 -8 7 -15 16 -15 11 0 14 -6 9 -21 -4 -13 -1 -27 11 -40 15 -17 18
-17 29 -3 11 16 12 16 18 0 4 -9 3 -16 -2 -16 -4 0 -6 -12 -3 -27 4 -23 6 -24
17 -9 10 13 14 14 24 3 6 -8 7 -18 3 -22 -4 -5 0 -6 9 -2 11 4 16 0 15 -11 0
-9 8 -17 19 -19 l20 -3 -20 9 c-22 11 -6 15 19 5 20 -8 21 -33 1 -40 -8 -4
-13 -10 -10 -15 3 -4 12 -6 20 -3 8 3 24 -2 37 -11 15 -11 17 -15 6 -12 -15 5
-16 4 -5 -13 6 -11 19 -20 27 -20 27 -1 52 -27 46 -48 -4 -13 -2 -20 6 -19 40
1 68 -4 68 -14 0 -6 -9 -8 -20 -4 -24 7 -26 -7 -5 -25 11 -9 18 -10 28 -1 15
12 27 5 27 -15 0 -18 53 -71 76 -77 17 -4 17 -5 2 -6 -10 0 -18 -6 -18 -12 0
-6 9 -9 20 -6 15 4 20 1 18 -10 -2 -9 3 -18 10 -20 7 -3 12 4 12 16 0 11 4 23
10 26 6 4 7 -1 3 -11 -5 -14 -3 -16 11 -11 10 4 20 7 22 7 2 0 4 293 4 650 l0
650 -632 0 c-548 -1 -630 -3 -614 -15z"/>
</g>
</svg>
